:version 1.10
:name ASF
:units
  mass 1
  length 1
  angle deg
:documentation
  ASF file generated by Kaydara
:root
  axis xyz
  order  tx ty tz rx ry rz
  position 0 0 0
  orientation 0 0 0
:bonedata
  begin
    id 1
    name SpineDummy
    direction 0.999998 -0.00179978 1.38929e-006
    length 3.60008
    axis 0 0 0 xyz
  end
  begin
    id 2
    name Spine
    direction 0.964365 0.262802 0.0305839
    length 8.13928
    axis 1.33928 -1.75354 15.2838 xyz
    dof rx ry rz
  end
  begin
    id 3
    name Spine1
    direction 0.811168 0.572065 0.12144
    length 7.14954
    axis 2.2224 -6.9761 35.2157 xyz
    dof rx ry rz
  end
  begin
    id 4
    name Neck
    direction 0 0 0
    length 0
    axis 2.2224 -6.9761 35.2157 xyz
    dof rx ry rz
  end
  begin
    id 5
    name HeadDummy
    direction 0.810939 0.572387 0.121455
    length 3.55534
    axis 2.2224 -6.9761 35.2157 xyz
  end
  begin
    id 6
    name Head
    direction 0.998226 -0.000232542 0.0595419
    length 7.35666
    axis -3.03688 -3.41352 -0.0133467 xyz
    dof rx ry rz
  end
  begin
    id 7
    name R_ClavicleDummy
    direction 0.531669 -0.194489 -0.824319
    length 2.49392
    axis 2.2224 -6.9761 35.2157 xyz
  end
  begin
    id 8
    name R_Clavicle
    direction -0.155119 0.0480802 -0.986725
    length 4.485
    axis -54.2764 80.6538 162.779 xyz
    dof rx ry rz
  end
  begin
    id 9
    name R_UpperArm
    direction -0.955567 0.200068 -0.216484
    length 10.1122
    axis -72.9943 12.5026 168.175 xyz
    dof rx ry rz
  end
  begin
    id 10
    name R_Forearm
    direction -0.61433 0.385743 0.688332
    length 9.39148
    axis -117.015 -43.4982 147.875 xyz
    dof rx ry rz
  end
  begin
    id 11
    name R_Hand
    direction -0.699429 0.0170333 0.714499
    length 3.66324
    axis -45.0303 -36.7097 175.478 xyz
    dof rx ry rz
  end
  begin
    id 12
    name L_ClavicleDummy
    direction 0.40287 -0.36502 0.839319
    length 2.49392
    axis 2.2224 -6.9761 35.2157 xyz
  end
  begin
    id 13
    name L_Clavicle
    direction -0.231271 -0.0726419 0.970174
    length 4.485
    axis 18.4357 -75.9711 -162.563 xyz
    dof rx ry rz
  end
  begin
    id 14
    name L_UpperArm
    direction -0.917494 0.144359 0.370629
    length 10.1122
    axis 56.0417 -21.7544 171.058 xyz
    dof rx ry rz
  end
  begin
    id 15
    name L_Forearm
    direction -0.496786 0.615074 -0.612281
    length 9.39148
    axis 89.8094 37.7546 128.927 xyz
    dof rx ry rz
  end
  begin
    id 16
    name L_Hand
    direction -0.409932 0.64962 -0.640274
    length 3.66324
    axis -0.424369 32.133 128.52 xyz
    dof rx ry rz
  end
  begin
    id 17
    name L_ThighDummy
    direction -1.84081e-006 1.87549e-006 1
    length 3.13049
    axis 0 0 0 xyz
  end
  begin
    id 18
    name L_Thigh
    direction -0.947739 0.307978 0.083308
    length 17.9961
    axis 173.219 -4.77873 161.998 xyz
    dof rx ry rz
  end
  begin
    id 19
    name L_Calf
    direction -0.728814 -0.684427 0.0197583
    length 13.3367
    axis 167.331 -1.13214 -136.799 xyz
    dof rx ry rz
  end
  begin
    id 20
    name L_Foot
    direction -0.9028 0.418719 0.0981191
    length 5.8674
    axis 163.436 11.5135 -155.37 xyz
    dof rx ry rz
  end
  begin
    id 21
    name L_Toe0
    direction -0.35341 0.886259 0.299411
    length 4.75286
    axis 169.316 -17.4222 111.74 xyz
    dof rx ry rz
  end
  begin
    id 22
    name R_ThighDummy
    direction 9.32778e-007 -8.82053e-007 -1
    length 3.13049
    axis 0 0 0 xyz
  end
  begin
    id 23
    name R_Thigh
    direction -0.925064 0.37528 -0.0585023
    length 17.9961
    axis -178.698 3.35385 157.919 xyz
    dof rx ry rz
  end
  begin
    id 24
    name R_Calf
    direction -0.68969 -0.718776 -0.0876886
    length 13.3367
    axis -160.504 5.03065 -133.817 xyz
    dof rx ry rz
  end
  begin
    id 25
    name R_Foot
    direction -0.857405 0.418858 -0.299022
    length 5.8674
    axis -161.328 4.38911 -154.413 xyz
    dof rx ry rz
  end
  begin
    id 26
    name R_Toe0
    direction -0.100745 0.952789 -0.286433
    length 4.75286
    axis 171.683 16.6445 96.0359 xyz
    dof rx ry rz
  end
:hierarchy
  begin
    root SpineDummy L_ThighDummy R_ThighDummy
    SpineDummy Spine
    Spine Spine1
    Spine1 Neck
    Neck HeadDummy R_ClavicleDummy L_ClavicleDummy
    HeadDummy Head
    R_ClavicleDummy R_Clavicle
    R_Clavicle R_UpperArm
    R_UpperArm R_Forearm
    R_Forearm R_Hand
    L_ClavicleDummy L_Clavicle
    L_Clavicle L_UpperArm
    L_UpperArm L_Forearm
    L_Forearm L_Hand
    L_ThighDummy L_Thigh
    L_Thigh L_Calf
    L_Calf L_Foot
    L_Foot L_Toe0
    R_ThighDummy R_Thigh
    R_Thigh R_Calf
    R_Calf R_Foot
    R_Foot R_Toe0
  end

:SAMPLES-PER-SECOND 30
:FULLY-SPECIFIED
:DEGREES
537
root  -16.6616 31.3623 31.2775 -108.852 2.99313 70.1771
Spine  -8.57709 -6.88315 1.28796
Spine1  -6.85665 0.0596273 -10.939
Neck  3.97569e-016 0 -2.38542e-015
Head  24.3409 6.30491 -6.09899
R_Clavicle  0.434258 -16.8803 2.38631
R_UpperArm  18.737 -8.2777 62.4788
R_Forearm  32.0749 18.6221 -16.2852
R_Hand  0.136837 3.41541 -5.3879
L_Clavicle  -0.505454 8.22859 3.98378
L_UpperArm  -42.9061 -27.6478 22.435
L_Forearm  -2.18763 7.22341 8.40871
L_Hand  -0.364619 2.92279 -4.76023
L_Thigh  21.6646 9.16999 -4.0088
L_Calf  -5.09115 7.04875 -64.6386
L_Foot  7.26024 5.51803 22.2152
L_Toe0  0.505156 0.0358234 -6.13609
R_Thigh  8.93913 3.30953 0.531048
R_Calf  12.5277 3.93804 12.4658
R_Foot  -3.31886 -5.82013 9.43926
R_Toe0  -0.360005 -0.0173386 -3.13264
538
root  -16.1155 32.9412 32.1326 -108.678 6.19943 73.7184
Spine  -9.2135 -8.18637 -0.386225
Spine1  -7.77423 3.60702 -11.4044
Neck  3.97569e-016 0 -2.38542e-015
Head  23.6379 7.61905 -1.99109
R_Clavicle  0.391909 -16.9451 1.52439
R_UpperArm  18.9365 -11.3388 63.65
R_Forearm  25.2551 16.5299 -14.3034
R_Hand  0.140748 2.58478 -3.94523
L_Clavicle  -0.538162 5.83882 4.18182
L_UpperArm  -36.9639 -28.1168 13.9149
L_Forearm  -2.10514 7.62771 8.89152
L_Hand  -0.488227 2.72039 -6.60073
L_Thigh  10.8859 5.7952 -3.73628
L_Calf  -10.6619 7.08706 -65.4158
L_Foot  7.26987 5.69693 21.933
L_Toe0  0.505156 0.0355834 -6.13609
R_Thigh  9.47776 6.13593 1.49778
R_Calf  -0.666973 5.60402 17.8963
R_Foot  -0.635843 -4.08977 -4.27564
R_Toe0  -10.5406 2.30378 -3.60517
539
root  -15.5523 34.2805 32.8685 -108.97 9.19858 77.361
Spine  -9.56011 -9.4791 -2.16285
Spine1  -8.74463 7.508 -11.3142
Neck  3.97569e-016 0 -2.38542e-015
Head  23.8689 7.98945 2.07217
R_Clavicle  0.350958 -17.1401 0.625899
R_UpperArm  19.0764 -11.9102 62.103
R_Forearm  23.273 11.7902 -10.0158
R_Hand  0.039659 2.64523 -5.30515
L_Clavicle  -0.585711 4.92261 4.57894
L_UpperArm  -31.4955 -27.5114 5.78138
L_Forearm  0.168768 8.03615 9.38068
L_Hand  -0.513136 3.61602 -6.19553
L_Thigh  2.30562 1.84161 -0.272434
L_Calf  -12.0571 6.67717 -59.0076
L_Foot  6.11394 5.07758 18.7816
L_Toe0  0.505156 0.0353162 -6.13609
R_Thigh  6.84788 8.20335 3.13481
R_Calf  -11.6969 5.88825 18.8133
R_Foot  2.32674 4.36849 -13.9695
R_Toe0  -11.3234 1.69981 -9.23286
540
root  -15.0603 35.2509 33.4587 -108.63 10.4511 80.9527
Spine  -10.3344 -10.5547 -1.53368
Spine1  -10.1592 11.3236 -11.7291
Neck  3.97569e-016 0 -2.38542e-015
Head  24.4561 9.39952 4.78131
R_Clavicle  0.326546 -16.9952 0.164382
R_UpperArm  19.3369 -11.5568 58.6273
R_Forearm  24.3702 5.40332 -4.53548
R_Hand  -0.185062 3.84229 -9.42764
L_Clavicle  -0.566494 5.40552 4.44131
L_UpperArm  -27.1363 -26.9751 -0.796886
L_Forearm  2.84324 8.13824 9.50444
L_Hand  -0.41946 4.66104 -4.5222
L_Thigh  -1.83878 -1.64685 2.39538
L_Calf  -6.21659 5.74335 -47.5177
L_Foot  4.80354 4.64756 14.5046
L_Toe0  0.505156 0.035047 -6.13609
R_Thigh  3.87439 8.99211 3.93022
R_Calf  -13.9444 3.91959 12.3499
R_Foot  3.14882 9.62777 -13.9602
R_Toe0  -0.974897 -0.445677 -18.0603
541
root  -14.6705 35.7962 34.0888 -108.165 10.4052 85.0652
Spine  -10.9946 -10.2127 0.959272
Spine1  -11.3366 14.0953 -12.3476
Neck  3.97569e-016 0 -2.38542e-015
Head  24.8755 11.8888 5.94192
R_Clavicle  0.32086 -16.9691 0.0567134
R_UpperArm  20.9665 -10.7947 54.6531
R_Forearm  26.3036 -1.37526 1.11618
R_Hand  -0.560399 5.1983 -14.2187
L_Clavicle  -0.480023 6.32901 3.54567
L_UpperArm  -23.2927 -26.6965 -6.23817
L_Forearm  4.07253 8.19299 9.57146
L_Hand  -0.375589 4.95966 -3.90308
L_Thigh  -2.94607 -3.72266 2.57489
L_Calf  2.09872 4.20569 -32.7083
L_Foot  3.04671 3.15977 9.64172
L_Toe0  0.505156 0.0348008 -6.13609
R_Thigh  2.33544 9.20133 4.14374
R_Calf  -10.9786 -0.158371 -0.429935
R_Foot  2.81639 8.57549 -9.65098
R_Toe0  -1.78853 -0.272788 -17.3235
542
root  -14.329 36.0014 34.8055 -108.6 10.7631 89.011
Spine  -11.0969 -9.81855 2.72433
Spine1  -11.8487 16.6617 -12.265
Neck  3.97569e-016 0 -2.38542e-015
Head  25.6048 14.2087 6.41584
R_Clavicle  0.327446 -17.3298 0.0501517
R_UpperArm  23.8019 -9.06376 50.9578
R_Forearm  28.5016 -7.82221 6.52663
R_Hand  -0.925741 6.18749 -17.9498
L_Clavicle  -0.401598 7.14075 2.57625
L_UpperArm  -20.4213 -26.0119 -11.0216
L_Forearm  4.00616 8.2627 9.65622
L_Hand  -0.424853 4.80213 -4.50725
L_Thigh  -2.82473 -4.70349 1.74026
L_Calf  7.87073 2.16786 -16.2244
L_Foot  1.61028 0.994435 6.40761
L_Toe0  0.505156 0.0346025 -6.1361
R_Thigh  0.678562 8.66115 4.79512
R_Calf  -8.78226 -4.66439 -14.5775
R_Foot  2.12125 6.23135 -5.46359
R_Toe0  -1.78853 -0.272788 -17.3235
543
root  -13.9865 35.967 35.5708 -109.581 12.1634 92.8164
Spine  -11.0489 -10.2675 3.60121
Spine1  -12.1051 20.4724 -11.7964
Neck  3.97569e-016 0 -2.38542e-015
Head  27.3276 14.6599 7.23065
R_Clavicle  0.339754 -17.7873 0.135271
R_UpperArm  26.3721 -6.32321 47.4212
R_Forearm  30.7991 -13.83 11.7741
R_Hand  -1.34031 7.14421 -21.5849
L_Clavicle  -0.368437 8.09083 2.02811
L_UpperArm  -19.3311 -24.467 -14.9088
L_Forearm  3.88244 8.01965 9.36657
L_Hand  -0.44887 4.84013 -4.75052
L_Thigh  -0.757482 -4.92866 1.13177
L_Calf  12.9554 -0.10801 0.694577
L_Foot  0.170917 -2.16026 3.73988
L_Toe0  0.505156 0.0344771 -6.1361
R_Thigh  -1.83943 7.35204 5.99859
R_Calf  -9.22585 -8.45242 -27.3516
R_Foot  1.69218 5.60031 -0.917469
R_Toe0  -1.78853 -0.272788 -17.3235
544
root  -13.631 35.5326 36.3446 -110.612 13.6571 97.4214
Spine  -10.8821 -10.3305 5.25333
Spine1  -12.4117 24.8103 -12.0713
Neck  3.97569e-016 0 -2.38542e-015
Head  29.4668 15.8972 8.25211
R_Clavicle  0.353617 -18.1057 0.344696
R_UpperArm  28.7859 -3.77502 44.3822
R_Forearm  32.6918 -18.6499 16.2575
R_Hand  -1.94563 7.92311 -26.2286
L_Clavicle  -0.359587 9.28277 1.67633
L_UpperArm  -19.5676 -22.4518 -17.6842
L_Forearm  4.62341 7.51797 8.76916
L_Hand  -0.415967 5.182 -4.24165
L_Thigh  4.1247 -4.28779 -0.0279167
L_Calf  16.4337 -2.0743 15.2824
L_Foot  -1.34925 -4.68855 -0.831422
L_Toe0  0.427408 0.039025 -6.20594
R_Thigh  -4.66128 5.67987 6.62996
R_Calf  -8.99578 -11.4394 -38.7491
R_Foot  1.55525 6.09035 3.81796
R_Toe0  -1.78853 -0.272788 -17.3235
545
root  -13.2642 34.5859 37.085 -111.949 14.5248 102.782
Spine  -10.2983 -9.44606 7.6761
Spine1  -12.4447 27.9617 -12.6901
Neck  3.97569e-016 0 -2.38542e-015
Head  31.4531 16.5782 9.73239
R_Clavicle  0.359053 -18.0627 0.503198
R_UpperArm  33.6313 -3.03756 42.6079
R_Forearm  34.6635 -20.4536 18.0246
R_Hand  -2.46767 7.98657 -30.2318
L_Clavicle  -0.346222 10.1688 1.18744
L_UpperArm  -20.1688 -20.9533 -19.9323
L_Forearm  6.34048 7.4617 8.70279
L_Hand  -0.438569 5.4748 -4.35952
L_Thigh  8.58581 -3.04991 -1.93212
L_Calf  13.9667 -3.03584 22.6725
L_Foot  -0.00420685 2.57256 -2.86918
L_Toe0  1.25669 -0.00981964 -5.46094
R_Thigh  -8.00766 3.32182 6.47813
R_Calf  -7.85136 -13.7167 -49.0341
R_Foot  1.47974 6.55645 7.94086
R_Toe0  -1.78853 -0.272788 -17.3235
546
root  -12.8966 33.2077 37.7667 -113.448 14.9711 107.783
Spine  -9.64707 -8.97749 9.33547
Spine1  -11.8444 30.3628 -11.7848
Neck  3.97569e-016 0 -2.38542e-015
Head  32.9532 18.4663 10.3969
R_Clavicle  0.355494 -17.5469 0.603247
R_UpperArm  41.808 -4.6596 42.0755
R_Forearm  38.6609 -17.4209 15.0838
R_Hand  -2.7545 8.02408 -32.4316
L_Clavicle  -0.327935 10.2783 0.790935
L_UpperArm  -20.8938 -20.602 -22.3155
L_Forearm  7.62297 8.00945 9.35608
L_Hand  -0.593209 5.23159 -6.0773
L_Thigh  6.59998 -1.4711 -3.1506
L_Calf  4.87097 -2.86895 21.304
L_Foot  7.92546 21.165 6.43927
L_Toe0  3.40364 -0.135114 -3.56455
R_Thigh  -11.8828 -0.259741 6.73388
R_Calf  -8.92858 -15.32 -57.9521
R_Foot  0.973129 5.91665 12.1252
R_Toe0  -1.78853 -0.272788 -17.3235
547
root  -12.5723 31.5701 38.3159 -114.697 14.8652 111.578
Spine  -9.56613 -9.78339 9.90756
Spine1  -10.824 33.3371 -8.86741
Neck  3.97569e-016 0 -2.38542e-015
Head  34.6115 19.8684 9.51985
R_Clavicle  0.370761 -17.2793 1.01495
R_UpperArm  49.609 -7.67629 42.5482
R_Forearm  43.5018 -8.82005 7.37971
R_Hand  -3.14403 8.61697 -34.8445
L_Clavicle  -0.332681 10.1046 0.955521
L_UpperArm  -21.8915 -21.0642 -23.6253
L_Forearm  6.16303 7.90533 9.23172
L_Hand  -0.805211 4.37104 -9.0525
L_Thigh  0.543346 0.304204 -2.80349
L_Calf  -8.41053 -2.04125 14.8222
L_Foot  20.9415 31.5116 27.0223
L_Toe0  0.0738582 0.0491983 -6.23299
R_Thigh  -14.5008 -4.30091 7.21511
R_Calf  -11.6592 -16.3389 -65.0845
R_Foot  -0.159376 3.93194 15.9223
R_Toe0  -1.78853 -0.272788 -17.3235
548
root  -12.4177 30.1673 38.5969 -117.363 13.3841 112.762
Spine  -10.1745 -11.9692 9.95868
Spine1  -9.81445 34.8896 -5.52112
Neck  3.97569e-016 0 -2.38542e-015
Head  37.1269 20.3463 8.3797
R_Clavicle  0.410116 -18.085 1.81728
R_UpperArm  53.9496 -10.8811 44.7895
R_Forearm  41.3222 4.24461 -3.5622
R_Hand  -3.33213 8.67362 -36.174
L_Clavicle  -0.382331 10.7667 1.71225
L_UpperArm  -23.3808 -21.5652 -20.8843
L_Forearm  1.83594 5.72676 6.65173
L_Hand  -0.993915 3.50041 -12.3125
L_Thigh  -2.64293 0.197371 -2.0591
L_Calf  -17.1614 -0.981179 6.93795
L_Foot  24.768 26.7316 38.248
L_Toe0  -0.443556 0.0382298 -5.59671
R_Thigh  -14.0888 -6.77013 7.06234
R_Calf  -11.0105 -16.8756 -69.7972
R_Foot  -1.25474 1.51587 16.0987
R_Toe0  -1.78853 -0.272788 -17.3235
549
root  -12.594 29.3504 38.409 -123.894 10.8308 111.269
Spine  -10.3269 -13.4077 8.24348
Spine1  -8.96251 31.0738 -3.22368
Neck  3.97569e-016 0 -2.38542e-015
Head  40.604 19.8704 9.7898
R_Clavicle  0.431712 -19.1507 2.47816
R_UpperArm  55.199 -13.639 49.1842
R_Forearm  28.5309 18.5968 -16.2598
R_Hand  -2.6053 8.61234 -30.9039
L_Clavicle  -0.436817 12.5062 2.72051
L_UpperArm  -25.9772 -21.7155 -12.6936
L_Forearm  -2.02703 1.59791 1.84261
L_Hand  -1.04757 2.76655 -14.1392
L_Thigh  -5.81399 -2.59537 -3.09748
L_Calf  -19.258 -0.342559 2.36773
L_Foot  22.5509 23.2669 37.7869
L_Toe0  -0.458599 0.0406566 -5.5884
R_Thigh  -10.4155 -5.44821 6.87062
R_Calf  -4.65732 -17.0157 -71.2588
R_Foot  -1.41676 -0.278773 11.045
R_Toe0  -1.78853 -0.272788 -17.3235
550
root  -13.1428 29.0837 37.6294 -134.309 8.12578 108.723
Spine  -8.77263 -11.2323 3.54061
Spine1  -7.82962 20.9718 -1.84876
Neck  3.97569e-016 0 -2.38542e-015
Head  44.1542 17.9228 14.5
R_Clavicle  0.438201 -18.7902 2.63837
R_UpperArm  55.056 -14.6229 54.0803
R_Forearm  11.6195 30.227 -28.9736
R_Hand  -1.20344 9.10314 -20.4922
L_Clavicle  -0.459535 14.1141 3.68533
L_UpperArm  -30.23 -21.5939 -1.28003
L_Forearm  -2.33225 -2.72937 -3.16376
L_Hand  -0.867475 1.85321 -13.1789
L_Thigh  -13.4597 -6.41895 -5.37289
L_Calf  -20.022 -0.35037 2.57054
L_Foot  21.392 24.2631 34.484
L_Toe0  -2.14357 0.102875 -4.82803
R_Thigh  -4.91021 -1.66993 7.16448
R_Calf  2.53333 -16.707 -68.2925
R_Foot  -0.778857 -1.67007 2.27048
R_Toe0  -1.78853 -0.272788 -17.3235
551
root  -13.876 29.2591 36.4583 -145.65 5.59241 106.164
Spine  -6.19366 -6.13003 -2.36329
Spine1  -6.17483 8.6782 -0.464917
Neck  3.97569e-016 0 -2.38542e-015
Head  46.593 14.761 20.0539
R_Clavicle  0.440762 -16.8477 2.51591
R_UpperArm  54.8505 -11.7235 57.257
R_Forearm  -0.640756 37.1403 -39.0088
R_Hand  0.0971716 10.3515 -11.8395
L_Clavicle  -0.470973 14.3776 4.54439
L_UpperArm  -35.7003 -21.3941 9.6258
L_Forearm  0.637039 -5.179 -6.01888
L_Hand  -0.661545 1.25817 -10.8979
L_Thigh  -24.0094 -9.93674 -6.45254
L_Calf  -19.3985 -0.604149 4.52004
L_Foot  18.8848 26.1968 27.4597
L_Toe0  -1.98322 0.0874091 -3.25611
R_Thigh  1.12005 0.891297 6.21455
R_Calf  5.68757 -15.812 -61.2587
R_Foot  0.282569 -2.34361 -7.21365
R_Toe0  -1.78853 -0.272788 -17.3235
